Coordinates
version=1
nRows=7
nColumns=63
inDegrees=yes

Units are S.I. units (second, meters, Newtons, ...)
If the header above contains a line with 'inDegrees', this indicates whether rotational values are in degrees (yes) or radians (no).

endheader
time	pelvis_tilt	pelvis_list	pelvis_rotation	pelvis_tx	pelvis_ty	pelvis_tz	hip_flexion_r	hip_adduction_r	hip_rotation_r	knee_angle_r	knee_angle_r_beta	ankle_angle_r	subtalar_angle_r	mtp_angle_r	hip_flexion_l	hip_adduction_l	hip_rotation_l	knee_angle_l	knee_angle_l_beta	ankle_angle_l	subtalar_angle_l	mtp_angle_l	L5_S1_Flex_Ext	L5_S1_Lat_Bending	L5_S1_axial_rotation	L4_L5_Flex_Ext	L4_L5_Lat_Bending	L4_L5_axial_rotation	L3_L4_Flex_Ext	L3_L4_Lat_Bending	L3_L4_axial_rotation	L2_L3_Flex_Ext	L2_L3_Lat_Bending	L2_L3_axial_rotation	L1_L2_Flex_Ext	L1_L2_Lat_Bending	L1_L2_axial_rotation	L1_T12_Flex_Ext	L1_T12_Lat_Bending	L1_T12_axial_rotation	Abs_r3	Abs_r2	Abs_r1	Abs_t1	Abs_t2	neck_flexion	neck_bending	neck_rotation	arm_flex_r	arm_add_r	arm_rot_r	elbow_flex_r	pro_sup_r	wrist_flex_r	wrist_dev_r	arm_flex_l	arm_add_l	arm_rot_l	elbow_flex_l	pro_sup_l	wrist_flex_l	wrist_dev_l
      2.60000000	      3.14900650	      5.26294751	      9.70052871	     -0.59133371	      0.92345224	      0.34047543	     26.23077486	      9.91242547	    -30.29324370	      0.06140958	      0.00107180	    -49.59294694	     19.83274910	      0.00000000	     24.63287839	     -1.91283312	    -39.59834632	      0.05293312	      0.00092386	    -38.47155366	     19.69883799	      0.00000000	      0.04585224	     -0.63728793	     -2.25580900	      0.08515220	     -0.84759294	     -2.39679706	      0.07533065	     -1.54950186	     -2.39679706	      0.05240453	     -1.54950186	     -1.97383287	      0.04257839	     -1.29955754	     -1.83284481	      0.02619997	     -0.98715900	     -1.69185675	      0.32751797	     -7.20912848	    -12.54613290	      0.00000000	      0.00000000	     -0.00000000	      0.00000000	      0.00000000	      3.84452257	    -14.12061918	     32.47869873	     25.52697521	     73.70541249	      0.00000000	      5.00002427	    -15.25460487	    -20.55354102	     25.39799878	     38.68470813	     73.17963400	      0.00000000	      5.00002427
      2.63333333	      3.06545604	      4.98986980	      4.91122822	     -0.55333740	      0.93155261	      0.34939524	     23.49203132	     12.66310584	    -22.84397531	      0.05090612	      0.00088848	    -46.47663343	     19.83315339	      0.00000000	     23.38198517	     -4.32051071	    -39.77096069	      0.06830630	      0.00119217	    -37.52325163	     17.50818024	      0.00000000	      0.03594929	     -0.59356501	     -1.46450983	      0.06676143	     -0.78944146	     -1.55604169	      0.05906109	     -1.44319396	     -1.55604169	      0.04108644	     -1.44319396	     -1.28144610	      0.03338251	     -1.21039776	     -1.18991423	      0.02054142	     -0.91943219	     -1.09838237	      0.25678218	     -6.71452607	     -8.14516430	      0.00000000	      0.00000000	     -0.00000000	      0.00000000	      0.00000000	      8.91167474	    -14.45420275	     37.12383133	     25.46433275	     72.92348611	      0.00000000	      5.00001956	    -18.40499600	    -18.20980278	     19.46806074	     37.27712282	     72.60600040	      0.00000000	      5.00001956
      2.66666667	      3.02622972	      4.95469562	     -1.20377094	     -0.51718325	      0.93820979	      0.35916114	     20.30853978	     15.19305339	    -14.42101248	      0.04502796	      0.00078589	    -43.76878327	     19.83313638	      0.00000000	     21.91192919	     -6.54490273	    -39.77377698	      0.10079036	      0.00175912	    -37.87052333	      9.42894946	      0.00000000	      0.02287882	     -0.58329486	     -0.32574570	      0.04248825	     -0.77578216	     -0.34610481	      0.03758761	     -1.41822311	     -0.34610481	      0.02614820	     -1.41822311	     -0.28502749	      0.02124527	     -1.18945487	     -0.26466838	      0.01307296	     -0.90352373	     -0.24430928	      0.16342110	     -6.59834808	     -1.81169988	      0.00000000	      0.00000000	     -0.00000000	      0.00000000	      0.00000000	     13.24963895	    -14.69505672	     40.56158512	     25.27890288	     68.58944245	      0.00000000	      5.00000884	    -21.03810887	    -16.20231498	     13.25296414	     37.02577849	     72.88968287	      0.00000000	      5.00000884
      2.70000000	      3.00326786	      4.66443970	     -7.28368932	     -0.48229361	      0.94271766	      0.36786473	     16.85904214	     17.39224605	     -6.12612531	      0.04069780	      0.00071031	    -41.08117034	     19.83136595	      0.00000000	     20.34313279	     -8.76532287	    -39.75685668	      0.19373001	      0.00338123	    -40.03046862	     -0.44113807	      0.00000000	      0.00725747	     -0.55075359	      0.93837839	      0.01347785	     -0.73250228	      0.99702704	      0.01192330	     -1.33910228	      0.99702704	      0.00829457	     -1.33910228	      0.82108109	      0.00673929	     -1.12309672	      0.76243244	      0.00414692	     -0.85311731	      0.70378379	      0.05183941	     -6.23023477	      5.21897910	      0.00000000	      0.00000000	     -0.00000000	      0.00000000	      0.00000000	     15.79164343	    -14.80537384	     36.79397196	     25.94625740	     66.93610296	      0.00000000	      5.00000758	    -23.09643315	    -14.54675849	      7.72470065	     37.80379367	     72.07420936	      0.00000000	      5.00000758
      2.73333333	      2.90514261	      4.20981331	    -12.88295554	     -0.44809331	      0.94456780	      0.37547608	     13.31531966	     19.09812000	      1.98095247	      0.03711818	      0.00064783	    -38.05834702	     19.82807530	      0.00000000	     18.96833423	    -10.97188026	    -39.71291737	      0.69248831	      0.01208620	    -44.55516236	    -11.89283165	      0.00000000	     -0.00733318	     -0.50421187	      2.16700010	     -0.01361846	     -0.67060179	      2.30243761	     -0.01204769	     -1.22594074	      2.30243761	     -0.00838110	     -1.22594074	      1.89612509	     -0.00680959	     -1.02818885	      1.76068758	     -0.00419018	     -0.78102419	      1.62525008	     -0.05238020	     -5.70374553	     12.05220446	      0.00000000	      0.00000000	     -0.00000000	      0.00000000	      0.00000000	     17.25758839	    -14.92863620	     30.52028862	     27.60856903	     64.71967361	      0.00000000	      5.00000654	    -24.56952213	    -13.44222158	      3.91087706	     38.85254543	     71.52551496	      0.00000000	      5.00000654
      2.76666667	      2.63678835	      3.53640915	    -17.03508562	     -0.41363095	      0.94373458	      0.38181552	     10.02122086	     20.35643835	      8.66461023	      0.03425385	      0.00059784	    -34.72010726	     19.82587283	      0.00000000	     18.26247308	    -13.57162724	    -39.70791789	      2.62933719	      0.04589059	    -48.69387908	    -19.37278390	      0.00000000	     -0.01905097	     -0.44037230	      3.11650921	     -0.03537956	     -0.58569516	      3.31129104	     -0.03129884	     -1.07072121	      3.31129104	     -0.02177335	     -1.07072121	      2.72694556	     -0.01769073	     -0.89800720	      2.53216374	     -0.01088572	     -0.68213669	      2.33738191	     -0.13607918	     -4.98157955	     17.33308930	      0.00000000	      0.00000000	     -0.00000000	      0.00000000	      0.00000000	     18.80083856	    -15.52434910	     28.41561052	     29.81838414	     64.07096950	      0.00000000	      5.00000635	    -25.30321685	    -13.23689020	      3.07963850	     39.42547937	     71.34589686	      0.00000000	      5.00000635
      2.80000000	      2.15638316	      2.89124277	    -19.50895450	     -0.37758814	      0.94086834	      0.38736495	      7.16474996	     21.14085377	     13.84132672	      0.03174241	      0.00055401	    -30.98231959	     19.81883422	      0.00000000	     17.86377285	    -16.02401009	    -39.74921544	      4.78566042	      0.08352553	    -50.56013063	    -19.77417099	      0.00000000	     -0.02554849	     -0.39475273	      3.73095621	     -0.04744610	     -0.52502113	      3.96414097	     -0.04197361	     -0.95980179	      3.96414097	     -0.02919937	     -0.95980179	      3.26458668	     -0.02372433	     -0.80497977	      3.03140192	     -0.01459841	     -0.61147198	      2.79821716	     -0.18249031	     -4.46552184	     20.75045915	      0.00000000	      0.00000000	     -0.00000000	      0.00000000	      0.00000000	     18.43859371	    -14.35485278	     18.31809168	     33.25559594	     61.46298747	      0.00000000	      5.00000567	    -25.63961570	    -12.63263975	     -0.25966410	     39.19839347	     70.86617351	      0.00000000	      5.00000567
